<svg xmlns="http://www.w3.org/2000/svg"
 xmlns:xlink="http://www.w3.org/1999/xlink"
 width="100px" height="85px"  viewBox="0 0 100 85">
<path fill-rule="evenodd"  fill="#ffffff"
 d="M71.74829,37.107056 C71.74829,37.107056 67.37619,37.107056 67.37619,37.107056 C67.37619,37.107056 67.37619,42.62549 67.37619,42.62549 C67.37619,42.62549 62.00473,42.62549 62.00473,42.62549 C62.00473,42.62549 62.00473,47.02478 62.00473,47.02478 C62.00473,47.02478 67.37619,47.02478 67.37619,47.02478 C67.37619,47.02478 67.37619,52.542725 67.37619,52.542725 C67.37619,52.542725 71.74829,52.542725 71.74829,52.542725 C71.74829,52.542725 71.74829,47.02478 71.74829,47.02478 C71.74829,47.02478 77.346924,47.02478 77.346924,47.02478 C77.346924,47.02478 77.346924,42.62549 77.346924,42.62549 C77.346924,42.62549 71.74829,42.62549 71.74829,42.62549 C71.74829,42.62549 71.74829,37.107056 71.74829,37.107056 ZM17.777618,65.73584 C22.522858,65.73584 26.368591,69.60498 26.368591,74.377686 C26.368591,79.15222 22.522858,83.02344 17.777618,83.02344 C13.033356,83.02344 9.186768,79.15222 9.186768,74.377686 C9.186768,69.60498 13.033356,65.73584 17.777618,65.73584 ZM78.26672,65.73584 C83.01007,65.73584 86.85571,69.60498 86.85571,74.377686 C86.85571,79.15222 83.01007,83.02344 78.26672,83.02344 C73.52142,83.02344 69.67389,79.15222 69.67389,74.377686 C69.67389,69.60498 73.52142,65.73584 78.26672,65.73584 ZM26.76007,8.157959 C26.28363,7.9418945 25.723969,8.154785 25.508667,8.63208 C25.292725,9.109741 25.50415,9.675781 25.979645,9.890381 C25.979645,9.890381 33.93802,13.522095 33.93802,13.522095 C34.06534,13.578613 34.19757,13.607422 34.32773,13.607422 C34.687836,13.607422 35.031494,13.400024 35.19037,13.047974 C35.406403,12.5703125 35.19583,12.005127 34.719208,11.789673 C34.719208,11.789673 26.76007,8.157959 26.76007,8.157959 ZM39.837646,10.362427 C40.06668,10.362427 40.295807,10.280884 40.476807,10.11145 C40.862823,9.755859 40.887787,9.156128 40.535767,8.767822 C40.535767,8.767822 34.630676,2.2856445 34.630676,2.2856445 C34.278748,1.8999023 33.67932,1.8690186 33.293304,2.2287598 C32.907288,2.5847168 32.88327,3.184082 33.2352,3.5725098 C33.2352,3.5725098 39.139526,10.053711 39.139526,10.053711 C39.326935,10.258179 39.582703,10.362427 39.837646,10.362427 ZM50.78543,2.2266846 C50.397522,1.8690186 49.802887,1.8978271 49.448242,2.2835693 C49.448242,2.2835693 43.54486,8.765991 43.54486,8.765991 C43.19281,9.154419 43.217865,9.755859 43.603912,10.109741 C43.784912,10.278809 44.013947,10.360596 44.24298,10.360596 C44.497986,10.360596 44.753693,10.256714 44.9411,10.052002 C44.9411,10.052002 50.844482,3.5706787 50.844482,3.5706787 C51.19745,3.182373 51.17154,2.5826416 50.78543,2.2266846 ZM48.022034,13.607422 C48.152374,13.607422 48.28534,13.578613 48.411926,13.522095 C48.411926,13.522095 56.371063,9.890381 56.371063,9.890381 C56.847687,9.675781 57.058258,9.109741 56.84204,8.63208 C56.626007,8.154785 56.0683,7.9418945 55.58969,8.157959 C55.58969,8.157959 47.630554,11.789673 47.630554,11.789673 C47.154114,12.005127 46.944305,12.5703125 47.159576,13.047974 C47.320343,13.400024 47.66284,13.607422 48.022034,13.607422 ZM91.40692,18.100098 C91.40692,18.100098 47.025665,18.100098 47.025665,18.100098 C46.159454,15.495483 43.741577,13.605347 40.85907,13.605347 C37.978516,13.605347 35.559814,15.495483 34.693512,18.100098 C34.693512,18.100098 33.27304,18.100098 31.519135,18.100098 C29.766327,18.100098 28.345886,20.578613 28.345886,23.632935 C28.345886,23.632935 28.345886,29.166626 28.345886,29.166626 C28.345886,29.166626 26.690857,29.166626 24.64978,29.166626 C22.608734,29.166626 18.739075,31.743286 16.003448,34.922363 C16.003448,34.922363 5.9756775,46.578613 5.9756775,46.578613 C3.2400513,49.758545 1.023468,55.74109 1.023468,59.944702 C1.023468,59.944702 1.023468,63.390747 1.023468,63.390747 C1.023468,67.59436 2.5916748,71.00256 4.526581,71.00256 C4.526581,71.00256 8.029541,71.00256 8.029541,71.00256 C9.342072,66.79712 13.249573,63.743652 17.865387,63.743652 C22.480377,63.743652 26.386108,66.79712 27.700317,71.00256 C27.700317,71.00256 28.347778,71.00256 28.347778,71.00256 C28.347778,71.00256 33.50302,71.00256 33.50302,71.00256 C33.50302,71.00256 68.5177,71.00256 68.5177,71.00256 C69.83276,66.79712 73.73764,63.743652 78.35544,63.743652 C82.96939,63.743652 86.875946,66.79712 88.18933,71.00256 C88.18933,71.00256 90.605316,71.00256 93.58276,71.00256 C96.562164,71.00256 98.97635,67.59436 98.97635,63.390747 C98.97635,63.390747 98.97635,25.70874 98.97635,25.70874 C98.972595,21.508667 95.58511,18.100098 91.40692,18.100098 ZM28.638672,45.088257 C28.638672,47.18811 26.943909,48.894287 24.855743,48.894287 C24.855743,48.894287 16.344269,48.894287 16.344269,48.894287 C14.256134,48.894287 13.726959,47.6604 15.165955,46.13257 C15.165955,46.13257 21.071045,39.86731 21.071045,39.86731 C22.508148,38.341797 24.785583,37.107056 26.157074,37.107056 C27.528534,37.107056 28.638672,38.811768 28.638672,40.913086 C28.638672,40.913086 28.638672,45.088257 28.638672,45.088257 ZM83.00461,46.801514 C83.00461,46.801514 83.01007,46.801514 83.01007,46.801514 C83.01007,46.801514 69.875336,59.76648 69.875336,59.76648 C69.875336,59.76648 56.341583,46.801514 56.341583,46.801514 C56.341583,46.801514 56.345154,46.801514 56.345154,46.801514 C54.287445,45.039673 52.97238,42.418457 52.97238,39.483765 C52.97238,34.17981 57.24472,29.880249 62.516388,29.880249 C65.37018,29.880249 67.92279,31.147827 69.67389,33.146484 C71.423096,31.147827 73.97769,29.880249 76.82962,29.880249 C82.10504,29.880249 86.37552,34.17981 86.37552,39.483765 C86.37552,42.420166 85.063934,45.04358 83.00461,46.801514 Z"/>
</svg>