<svg xmlns="http://www.w3.org/2000/svg"
 xmlns:xlink="http://www.w3.org/1999/xlink"
 width="62px" height="94px"  viewBox="0 0 62 94">
<path fill-rule="evenodd"  fill="#ffffff"
 d="M35.389282,43.52539 C33.534424,43.52539 31.874756,44.351562 30.737793,45.655396 C29.600098,44.353027 27.940186,43.52539 26.086304,43.52539 C22.660156,43.52539 19.884644,46.328857 19.884644,49.784058 C19.884644,51.69507 20.737305,53.40442 22.07483,54.553223 C22.07483,54.553223 22.07312,54.553223 22.07312,54.553223 C22.07312,54.553223 30.865967,63.002197 30.865967,63.002197 C30.865967,63.002197 39.400757,54.553223 39.400757,54.553223 C39.400757,54.553223 39.395874,54.553223 39.395874,54.553223 C40.735718,53.40442 41.58667,51.69507 41.58667,49.784058 C41.589966,46.328857 38.81604,43.52539 35.389282,43.52539 ZM35.722046,54.697876 C35.722046,54.697876 32.085693,54.697876 32.085693,54.697876 C32.085693,54.697876 32.085693,58.295288 32.085693,58.295288 C32.085693,58.295288 29.245972,58.295288 29.245972,58.295288 C29.245972,58.295288 29.245972,54.697876 29.245972,54.697876 C29.245972,54.697876 25.751709,54.697876 25.751709,54.697876 C25.751709,54.697876 25.751709,51.832764 25.751709,51.832764 C25.751709,51.832764 29.245972,51.832764 29.245972,51.832764 C29.245972,51.832764 29.245972,48.234985 29.245972,48.234985 C29.245972,48.234985 32.085693,48.234985 32.085693,48.234985 C32.085693,48.234985 32.085693,51.832764 32.085693,51.832764 C32.085693,51.832764 35.722046,51.832764 35.722046,51.832764 C35.722046,51.832764 35.722046,54.697876 35.722046,54.697876 ZM17.161865,1.9754639 C17.161865,1.9754639 23.258667,1.9754639 23.258667,1.9754639 C23.258667,1.9754639 23.258667,19.044067 23.258667,19.044067 C23.258667,19.044067 17.161865,19.044067 17.161865,19.044067 C17.161865,19.044067 17.161865,1.9754639 17.161865,1.9754639 ZM24.921875,1.9754639 C24.921875,1.9754639 31.018677,1.9754639 31.018677,1.9754639 C31.018677,1.9754639 31.018677,19.044067 31.018677,19.044067 C31.018677,19.044067 24.921875,19.044067 24.921875,19.044067 C24.921875,19.044067 24.921875,1.9754639 24.921875,1.9754639 ZM48.201782,19.044067 C48.201782,19.044067 54.298706,19.044067 54.298706,19.044067 C54.298706,19.044067 54.298706,2.071289 54.298706,2.071289 C53.98828,2.0272217 53.683105,1.9754639 53.364624,1.9754639 C53.364624,1.9754639 48.203247,1.9754639 48.203247,1.9754639 C48.203247,1.9754639 48.203247,19.044067 48.203247,19.044067 C48.203247,19.044067 48.201782,19.044067 48.201782,19.044067 ZM9.401978,1.9754639 C9.401978,1.9754639 15.498779,1.9754639 15.498779,1.9754639 C15.498779,1.9754639 15.498779,19.044067 15.498779,19.044067 C15.498779,19.044067 9.401978,19.044067 9.401978,19.044067 C9.401978,19.044067 9.401978,1.9754639 9.401978,1.9754639 ZM40.441772,1.9754639 C40.441772,1.9754639 46.538696,1.9754639 46.538696,1.9754639 C46.538696,1.9754639 46.538696,19.044067 46.538696,19.044067 C46.538696,19.044067 40.441772,19.044067 40.441772,19.044067 C40.441772,19.044067 40.441772,1.9754639 40.441772,1.9754639 ZM55.961792,2.5090332 C55.961792,2.5090332 55.961792,19.045532 55.961792,19.045532 C55.961792,19.045532 60.016968,19.045532 60.016968,19.045532 C60.016968,19.045532 60.016968,8.690308 60.016968,8.690308 C60.016968,5.913086 58.34424,3.5301514 55.961792,2.5090332 ZM32.681763,1.9754639 C32.681763,1.9754639 38.778564,1.9754639 38.778564,1.9754639 C38.778564,1.9754639 38.778564,19.044067 38.778564,19.044067 C38.778564,19.044067 32.681763,19.044067 32.681763,19.044067 C32.681763,19.044067 32.681763,1.9754639 32.681763,1.9754639 ZM7.7388916,2.0683594 C4.4937744,2.5141602 1.9829102,5.2922363 1.9829102,8.688843 C1.9829102,8.688843 1.9829102,19.044067 1.9829102,19.044067 C1.9829102,19.044067 7.7388916,19.044067 7.7388916,19.044067 C7.7388916,19.044067 7.7388916,2.0683594 7.7388916,2.0683594 ZM54.597534,21.109985 C54.597534,21.109985 7.402588,21.109985 7.402588,21.109985 C7.402588,21.109985 7.402588,38.445557 7.402588,38.445557 C7.402588,38.445557 7.402588,39.84375 7.402588,39.84375 C7.402588,39.84375 7.402588,65.018555 7.402588,65.018555 C7.402588,65.018555 7.402588,68.65527 7.402588,68.65527 C7.402588,68.65527 7.402588,85.31055 7.402588,85.31055 C7.402588,89.01807 10.3811035,92.023926 14.054932,92.023926 C14.054932,92.023926 47.94519,92.023926 47.94519,92.023926 C51.620483,92.023926 54.597534,89.01807 54.597534,85.31055 C54.597534,85.31055 54.597534,70.0531 54.597534,70.0531 C54.597534,70.0531 54.634766,70.0531 54.634766,70.0531 C54.634766,70.0531 54.634766,39.84375 54.634766,39.84375 C54.634766,39.84375 54.597534,39.84375 54.597534,39.84375 C54.597534,39.84375 54.597534,21.109985 54.597534,21.109985 ZM51.250244,58.305176 C51.250244,62.01245 48.271484,65.018555 44.5979,65.018555 C44.5979,65.018555 17.439575,65.018555 17.439575,65.018555 C13.765869,65.018555 10.787231,62.01245 10.787231,58.305176 C10.787231,58.305176 10.787231,46.556885 10.787231,46.556885 C10.787231,42.849243 13.765869,39.84375 17.439575,39.84375 C17.439575,39.84375 44.5979,39.84375 44.5979,39.84375 C48.271484,39.84375 51.250244,42.849243 51.250244,46.556885 C51.250244,46.556885 51.250244,58.305176 51.250244,58.305176 Z"/>
</svg>