<svg xmlns="http://www.w3.org/2000/svg"
 xmlns:xlink="http://www.w3.org/1999/xlink"
 width="78px" height="91px"  viewBox="0 0 78 91">
<path fill-rule="evenodd"  fill="#ffffff"
 d="M13.446838,48.057617 C13.606567,49.83313 14.603943,51.503906 16.27295,52.440796 C17.658203,53.21985 19.086365,53.79016 20.545044,54.177612 C19.723083,56.956665 18.213074,60.97937 15.524841,65.287476 C12.971558,69.381714 12.941223,74.32251 15.44458,78.84473 C19.132385,85.50928 27.275574,89.98767 35.710815,89.98767 C41.50244,89.98767 46.654297,87.31421 50.21045,82.46118 C55.296875,75.51868 56.423645,65.275024 53.224365,55.065674 C50.258728,45.59851 54.224854,40.549072 56.84906,38.377686 C58.987,40.443726 61.89038,41.718018 65.09589,41.718018 C71.668884,41.718018 76.99835,36.377808 76.99835,29.789429 C76.99835,23.201538 71.668884,17.862793 65.09589,17.862793 C58.522644,17.862793 53.193176,23.203003 53.193176,29.789429 C53.193176,30.717041 53.31006,31.615845 53.50952,32.48242 C48.55249,36.11377 42.833313,44.290527 46.835083,57.073853 C49.35956,65.13428 48.586792,73.33862 44.812317,78.48877 C43.211975,80.67468 40.332092,83.2793 35.70923,83.2793 C29.728455,83.2793 23.802002,80.118774 21.299377,75.59363 C20.375854,73.92261 19.611572,71.39624 21.203491,68.84155 C24.75879,63.138794 26.538513,57.817017 27.382324,54.564453 C29.358215,54.266235 31.287415,53.627563 33.143433,52.63452 C34.797607,51.749146 35.81299,50.147095 36.03656,48.41687 C43.899292,41.292725 47.531616,28.45581 47.73889,27.705566 C48.16278,26.16455 47.439697,24.582153 46.087097,23.860474 C47.174866,14.22522 43.61554,9.3688965 41.46814,7.3895264 C41.63031,6.463623 41.26245,5.473755 40.448975,4.942871 C40.448975,4.942871 36.50409,2.3583984 36.50409,2.3583984 C35.473206,1.684082 34.17749,2.0245361 33.61261,3.1235352 C33.61261,3.1235352 31.7323,6.765747 31.7323,6.765747 C31.166016,7.864502 31.665344,9.037598 32.848267,9.386963 C32.848267,9.386963 37.309814,10.705688 37.309814,10.705688 C38.441833,11.039551 39.796143,10.497925 40.436462,9.504883 C42.21466,11.381592 44.775024,15.560181 43.892883,23.531372 C42.680542,23.763184 41.639526,24.647583 41.287354,25.920166 C40.216736,29.775635 37.121216,37.740234 32.524048,42.514404 C31.06073,41.948364 29.378479,41.975708 27.886475,42.77185 C26.914734,43.29297 25.964233,43.555176 24.988708,43.574463 C24.988708,43.574463 24.787598,43.574463 24.787598,43.574463 C23.759888,43.55371 22.756287,43.26233 21.728638,42.686768 C20.273132,41.867676 18.615845,41.79602 17.154175,42.31299 C12.65979,37.51758 9.6297,29.722412 8.575317,25.920166 C8.222351,24.650879 7.179077,23.764648 5.970642,23.532837 C5.087097,15.561768 7.6466675,11.383057 9.427063,9.506348 C10.06842,10.499512 11.421692,11.041138 12.553101,10.707153 C12.553101,10.707153 17.014648,9.388428 17.014648,9.388428 C18.1958,9.039429 18.698425,7.864502 18.130371,6.767456 C18.130371,6.767456 16.251831,3.125122 16.251831,3.125122 C15.685364,2.0257568 14.389648,1.6855469 13.360413,2.3599854 C13.360413,2.3599854 9.409912,4.946167 9.409912,4.946167 C8.598877,5.4768066 8.230164,6.466919 8.393127,7.3927 C6.2487183,9.37207 2.6864624,14.226685 3.7733154,23.86377 C2.4215698,24.585083 1.6990967,26.167847 2.121582,27.709717 C2.326416,28.445068 5.8476562,40.87256 13.446838,48.057617 ZM65.09589,25.130005 C67.662476,25.130005 69.74591,27.215332 69.74591,29.789429 C69.74591,32.364014 67.662476,34.44934 65.09589,34.44934 C62.52765,34.44934 60.44568,32.364014 60.44568,29.789429 C60.44568,27.215332 62.52765,25.130005 65.09589,25.130005 Z"/>
</svg>